{"title":"Life Ok Rang Barse Holi Special 8th March","uid":7088973,"size":687232323,"categoryP":"video","categoryS":"tv_shows","magnet":"?xt=urn:btih:a060aff9d1245c75bd2157f0af547aec6448055d&amp;dn=Life+Ok+Rang+Barse+Holi+Special+8th+March&amp;tr=udp%3A%2F%2Ftracker.openbittorrent.com%3A80&amp;tr=udp%3A%2F%2Fopen.demonii.com%3A1337&amp;tr=udp%3A%2F%2Ftracker.coppersurfer.tk%3A6969&amp;tr=udp%3A%2F%2Fexodus.desync.com%3A6969","seeders":0,"leechers":0,"uploader":"arsenal_rocks","files":1,"time":1331252848,"description":"\nGeneral\nComplete name                            : Life Ok Rang Barse Holi Special 8th March.wmv\nFormat                                   : Windows Media\nFile size                                : 655 MiB\nDuration                                 : 1h 59mn\nOverall bit rate mode                    : Constant\nOverall bit rate                         : 767 Kbps\nMaximum Overall bit rate                 : 774 Kbps\nEncoded date                             : UTC 2012-03-08 22:33:47.180\n\nVideo\nID                                       : 2\nFormat                                   : VC-1\nFormat profile                           : MP@LL\nCodec ID                                 : WMV3\nCodec ID/Info                            : Windows Media Video 9\nCodec ID/Hint                            : WMV3\nDescription of the codec                 : Windows Media Video 9\nDuration                                 : 1h 59mn\nBit rate mode                            : Constant\nBit rate                                 : 700 Kbps\nWidth                                    : 320 pixels\nHeight                                   : 240 pixels\nDisplay aspect ratio                     : 4:3\nFrame rate                               : 25.000 fps\nBit depth                                : 8 bits\nScan type                                : Progressive\nCompression mode                         : Lossy\nBits/(Pixel*Frame)                       : 0.365\nStream size                              : 598 MiB (91%)\nLanguage                                 : English (US)\n\nAudio\nID                                       : 1\nFormat                                   : WMA\nFormat version                           : Version 2\nCodec ID                                 : 161\nCodec ID/Info                            : Windows Media Audio\nDescription of the codec                 : Windows Media Audio 9.2 -  64 kbps, 44 kHz, stereo (A/V) 1-pass CBR\nDuration                                 : 1h 59mn\nBit rate mode                            : Constant\nBit rate                                 : 64.0 Kbps\nChannel(s)                               : 2 channels\nSampling rate                            : 44.1 KHz\nBit depth                                : 16 bits\nStream size                              : 54.7 MiB (8%)\n\n &lt;a href=&quot;\nhttp://i.minus.com/j4x1ZYHncVOHj.jpg&quot; rel=&quot;nofollow&quot; target=&quot;_NEW&quot;&gt;\nhttp://i.minus.com/j4x1ZYHncVOHj.jpg&lt;/a&gt;","torrent":{"xt":"urn:btih:a060aff9d1245c75bd2157f0af547aec6448055d","amp;dn":"Life+Ok+Rang+Barse+Holi+Special+8th+March","amp;tr":["udp%3A%2F%2Ftracker.openbittorrent.com%3A80","udp%3A%2F%2Fopen.demonii.com%3A1337","udp%3A%2F%2Ftracker.coppersurfer.tk%3A6969","udp%3A%2F%2Fexodus.desync.com%3A6969"],"infoHash":"a060aff9d1245c75bd2157f0af547aec6448055d","infoHashBuffer":{"type":"Buffer","data":[160,96,175,249,209,36,92,117,189,33,87,240,175,84,122,236,100,72,5,93]},"announce":[],"urlList":[]}}